<?xml version="1.0" encoding="utf-8"?>
<!-- Generator: Adobe Illustrator 26.0.0, SVG Export Plug-In . SVG Version: 6.00 Build 0)  -->
<svg version="1.1" id="Ñëîé_1" xmlns="http://www.w3.org/2000/svg" xmlns:xlink="http://www.w3.org/1999/xlink" x="0px" y="0px"
	 viewBox="0 0 1080 1080" style="enable-background:new 0 0 1080 1080;" xml:space="preserve">
<style type="text/css">
	.st0{fill:url(#SVGID_1_);}
	.st1{opacity:0.5;}
	.st2{clip-path:url(#SVGID_00000076574937071436339990000018214523931049622944_);fill:#FFFFFF;}
	.st3{clip-path:url(#SVGID_00000076574937071436339990000018214523931049622944_);fill:#FEFFFF;}
	.st4{clip-path:url(#SVGID_00000076574937071436339990000018214523931049622944_);fill:#FEFEFF;}
	.st5{clip-path:url(#SVGID_00000076574937071436339990000018214523931049622944_);fill:#FDFEFE;}
	.st6{clip-path:url(#SVGID_00000076574937071436339990000018214523931049622944_);fill:#FCFDFE;}
	.st7{clip-path:url(#SVGID_00000076574937071436339990000018214523931049622944_);fill:#FBFDFE;}
	.st8{clip-path:url(#SVGID_00000076574937071436339990000018214523931049622944_);fill:#FBFCFE;}
	.st9{clip-path:url(#SVGID_00000076574937071436339990000018214523931049622944_);fill:#FAFCFE;}
	.st10{clip-path:url(#SVGID_00000076574937071436339990000018214523931049622944_);fill:#FAFCFD;}
	.st11{clip-path:url(#SVGID_00000076574937071436339990000018214523931049622944_);fill:#F9FBFD;}
	.st12{clip-path:url(#SVGID_00000076574937071436339990000018214523931049622944_);fill:#F8FBFD;}
	.st13{clip-path:url(#SVGID_00000076574937071436339990000018214523931049622944_);fill:#F7FAFD;}
	.st14{clip-path:url(#SVGID_00000076574937071436339990000018214523931049622944_);fill:#F7FAFC;}
	.st15{clip-path:url(#SVGID_00000076574937071436339990000018214523931049622944_);fill:#F6FAFC;}
	.st16{clip-path:url(#SVGID_00000076574937071436339990000018214523931049622944_);fill:#F6F9FC;}
	.st17{clip-path:url(#SVGID_00000076574937071436339990000018214523931049622944_);fill:#F5F9FC;}
	.st18{clip-path:url(#SVGID_00000076574937071436339990000018214523931049622944_);fill:#F4F9FC;}
	.st19{clip-path:url(#SVGID_00000076574937071436339990000018214523931049622944_);fill:#F4F8FB;}
	.st20{clip-path:url(#SVGID_00000076574937071436339990000018214523931049622944_);fill:#F3F8FB;}
	.st21{clip-path:url(#SVGID_00000076574937071436339990000018214523931049622944_);fill:#F2F7FB;}
	.st22{clip-path:url(#SVGID_00000076574937071436339990000018214523931049622944_);fill:#F1F7FB;}
	.st23{clip-path:url(#SVGID_00000076574937071436339990000018214523931049622944_);fill:#F1F6FA;}
	.st24{clip-path:url(#SVGID_00000076574937071436339990000018214523931049622944_);fill:#F0F6FA;}
	.st25{clip-path:url(#SVGID_00000076574937071436339990000018214523931049622944_);fill:#EFF5FA;}
	.st26{clip-path:url(#SVGID_00000076574937071436339990000018214523931049622944_);fill:#EEF5FA;}
	.st27{clip-path:url(#SVGID_00000076574937071436339990000018214523931049622944_);fill:#EEF4F9;}
	.st28{clip-path:url(#SVGID_00000076574937071436339990000018214523931049622944_);fill:#EDF4F9;}
	.st29{clip-path:url(#SVGID_00000076574937071436339990000018214523931049622944_);fill:#ECF4F9;}
	.st30{clip-path:url(#SVGID_00000076574937071436339990000018214523931049622944_);fill:#ECF3F9;}
	.st31{clip-path:url(#SVGID_00000076574937071436339990000018214523931049622944_);fill:#EBF3F9;}
	.st32{clip-path:url(#SVGID_00000076574937071436339990000018214523931049622944_);fill:#EAF2F8;}
	.st33{clip-path:url(#SVGID_00000076574937071436339990000018214523931049622944_);fill:#E9F2F8;}
	.st34{clip-path:url(#SVGID_00000076574937071436339990000018214523931049622944_);fill:#E8F1F8;}
	.st35{clip-path:url(#SVGID_00000076574937071436339990000018214523931049622944_);fill:#E7F0F7;}
	.st36{clip-path:url(#SVGID_00000076574937071436339990000018214523931049622944_);fill:#E6F0F7;}
	.st37{clip-path:url(#SVGID_00000076574937071436339990000018214523931049622944_);fill:#E5EFF7;}
	.st38{clip-path:url(#SVGID_00000076574937071436339990000018214523931049622944_);fill:#E4EFF6;}
	.st39{clip-path:url(#SVGID_00000076574937071436339990000018214523931049622944_);fill:#E4EEF6;}
	.st40{clip-path:url(#SVGID_00000076574937071436339990000018214523931049622944_);fill:#E3EEF6;}
	.st41{clip-path:url(#SVGID_00000076574937071436339990000018214523931049622944_);fill:#E2EDF6;}
	.st42{clip-path:url(#SVGID_00000076574937071436339990000018214523931049622944_);fill:#E1EDF5;}
	.st43{clip-path:url(#SVGID_00000076574937071436339990000018214523931049622944_);fill:#E1ECF5;}
	.st44{clip-path:url(#SVGID_00000076574937071436339990000018214523931049622944_);fill:#E0ECF5;}
	.st45{clip-path:url(#SVGID_00000076574937071436339990000018214523931049622944_);fill:#DFECF5;}
	.st46{clip-path:url(#SVGID_00000076574937071436339990000018214523931049622944_);fill:#DEEBF5;}
	.st47{clip-path:url(#SVGID_00000076574937071436339990000018214523931049622944_);fill:#DEEBF4;}
	.st48{clip-path:url(#SVGID_00000076574937071436339990000018214523931049622944_);fill:#DDEAF4;}
	.st49{clip-path:url(#SVGID_00000076574937071436339990000018214523931049622944_);fill:#DCEAF4;}
	.st50{clip-path:url(#SVGID_00000076574937071436339990000018214523931049622944_);fill:#DBE9F4;}
	.st51{clip-path:url(#SVGID_00000076574937071436339990000018214523931049622944_);fill:#DBE9F3;}
	.st52{clip-path:url(#SVGID_00000076574937071436339990000018214523931049622944_);fill:#DAE8F3;}
	.st53{clip-path:url(#SVGID_00000076574937071436339990000018214523931049622944_);fill:#D9E8F3;}
	.st54{clip-path:url(#SVGID_00000076574937071436339990000018214523931049622944_);fill:#D8E7F3;}
	.st55{clip-path:url(#SVGID_00000076574937071436339990000018214523931049622944_);fill:#D7E7F2;}
	.st56{clip-path:url(#SVGID_00000076574937071436339990000018214523931049622944_);fill:#D7E6F2;}
	.st57{clip-path:url(#SVGID_00000076574937071436339990000018214523931049622944_);fill:#D6E6F2;}
	.st58{clip-path:url(#SVGID_00000076574937071436339990000018214523931049622944_);fill:#D5E5F1;}
	.st59{clip-path:url(#SVGID_00000076574937071436339990000018214523931049622944_);fill:#D4E5F1;}
	.st60{clip-path:url(#SVGID_00000076574937071436339990000018214523931049622944_);fill:#D3E4F1;}
	.st61{clip-path:url(#SVGID_00000076574937071436339990000018214523931049622944_);fill:#D2E4F1;}
	.st62{clip-path:url(#SVGID_00000076574937071436339990000018214523931049622944_);fill:#D2E3F0;}
	.st63{clip-path:url(#SVGID_00000076574937071436339990000018214523931049622944_);fill:#D1E3F0;}
	.st64{clip-path:url(#SVGID_00000076574937071436339990000018214523931049622944_);fill:#D0E2F0;}
	.st65{clip-path:url(#SVGID_00000076574937071436339990000018214523931049622944_);fill:#CFE2F0;}
	.st66{clip-path:url(#SVGID_00000076574937071436339990000018214523931049622944_);fill:#CEE1EF;}
	.st67{clip-path:url(#SVGID_00000076574937071436339990000018214523931049622944_);fill:#CDE1EF;}
	.st68{clip-path:url(#SVGID_00000076574937071436339990000018214523931049622944_);fill:#CCE0EF;}
	.st69{clip-path:url(#SVGID_00000076574937071436339990000018214523931049622944_);fill:#CBDFEE;}
	.st70{clip-path:url(#SVGID_00000076574937071436339990000018214523931049622944_);fill:#CADEEE;}
	.st71{clip-path:url(#SVGID_00000076574937071436339990000018214523931049622944_);fill:#C9DEEE;}
	.st72{clip-path:url(#SVGID_00000076574937071436339990000018214523931049622944_);fill:#C8DDED;}
	.st73{clip-path:url(#SVGID_00000076574937071436339990000018214523931049622944_);fill:#C7DDED;}
	.st74{clip-path:url(#SVGID_00000076574937071436339990000018214523931049622944_);fill:#C6DCED;}
	.st75{clip-path:url(#SVGID_00000076574937071436339990000018214523931049622944_);fill:#C5DCEC;}
	.st76{clip-path:url(#SVGID_00000076574937071436339990000018214523931049622944_);fill:#C4DBEC;}
	.st77{clip-path:url(#SVGID_00000076574937071436339990000018214523931049622944_);fill:#C3DAEC;}
	.st78{clip-path:url(#SVGID_00000076574937071436339990000018214523931049622944_);fill:#C2DAEC;}
	.st79{clip-path:url(#SVGID_00000076574937071436339990000018214523931049622944_);fill:#C1D9EB;}
	.st80{clip-path:url(#SVGID_00000076574937071436339990000018214523931049622944_);fill:#C0D8EB;}
	.st81{clip-path:url(#SVGID_00000076574937071436339990000018214523931049622944_);fill:#BFD8EA;}
	.st82{clip-path:url(#SVGID_00000076574937071436339990000018214523931049622944_);fill:#BED7EA;}
	.st83{clip-path:url(#SVGID_00000076574937071436339990000018214523931049622944_);fill:#BDD6EA;}
	.st84{clip-path:url(#SVGID_00000076574937071436339990000018214523931049622944_);fill:#BCD6E9;}
	.st85{clip-path:url(#SVGID_00000076574937071436339990000018214523931049622944_);fill:#BBD5E9;}
	.st86{clip-path:url(#SVGID_00000076574937071436339990000018214523931049622944_);fill:#BAD5E9;}
	.st87{clip-path:url(#SVGID_00000076574937071436339990000018214523931049622944_);fill:#B9D4E8;}
	.st88{clip-path:url(#SVGID_00000076574937071436339990000018214523931049622944_);fill:#B8D3E8;}
	.st89{clip-path:url(#SVGID_00000076574937071436339990000018214523931049622944_);fill:#B7D3E8;}
	.st90{clip-path:url(#SVGID_00000076574937071436339990000018214523931049622944_);fill:#B6D2E7;}
	.st91{clip-path:url(#SVGID_00000076574937071436339990000018214523931049622944_);fill:#B5D2E7;}
	.st92{clip-path:url(#SVGID_00000076574937071436339990000018214523931049622944_);fill:#B4D1E7;}
	.st93{clip-path:url(#SVGID_00000076574937071436339990000018214523931049622944_);fill:#B3D0E7;}
	.st94{clip-path:url(#SVGID_00000076574937071436339990000018214523931049622944_);fill:#B2D0E6;}
	.st95{clip-path:url(#SVGID_00000076574937071436339990000018214523931049622944_);fill:#B1CFE6;}
	.st96{clip-path:url(#SVGID_00000076574937071436339990000018214523931049622944_);fill:#B0CFE6;}
	.st97{clip-path:url(#SVGID_00000076574937071436339990000018214523931049622944_);fill:#AFCEE5;}
	.st98{clip-path:url(#SVGID_00000076574937071436339990000018214523931049622944_);fill:#AECDE5;}
	.st99{clip-path:url(#SVGID_00000076574937071436339990000018214523931049622944_);fill:#ADCDE5;}
	.st100{clip-path:url(#SVGID_00000076574937071436339990000018214523931049622944_);fill:#ACCCE4;}
	.st101{clip-path:url(#SVGID_00000076574937071436339990000018214523931049622944_);fill:#ABCBE4;}
	.st102{clip-path:url(#SVGID_00000076574937071436339990000018214523931049622944_);fill:#AACBE4;}
	.st103{clip-path:url(#SVGID_00000076574937071436339990000018214523931049622944_);fill:#A9CAE3;}
	.st104{clip-path:url(#SVGID_00000076574937071436339990000018214523931049622944_);fill:#A8CAE3;}
	.st105{clip-path:url(#SVGID_00000076574937071436339990000018214523931049622944_);fill:#A6C9E3;}
	.st106{clip-path:url(#SVGID_00000076574937071436339990000018214523931049622944_);fill:#A5C8E2;}
	.st107{clip-path:url(#SVGID_00000076574937071436339990000018214523931049622944_);fill:#A4C8E2;}
	.st108{clip-path:url(#SVGID_00000076574937071436339990000018214523931049622944_);fill:#A3C7E2;}
	.st109{clip-path:url(#SVGID_00000076574937071436339990000018214523931049622944_);fill:#A2C6E1;}
	.st110{clip-path:url(#SVGID_00000076574937071436339990000018214523931049622944_);fill:#A1C6E1;}
	.st111{clip-path:url(#SVGID_00000076574937071436339990000018214523931049622944_);fill:#A0C5E0;}
	.st112{clip-path:url(#SVGID_00000076574937071436339990000018214523931049622944_);fill:#9FC4E0;}
	.st113{clip-path:url(#SVGID_00000076574937071436339990000018214523931049622944_);fill:#9EC4E0;}
	.st114{clip-path:url(#SVGID_00000076574937071436339990000018214523931049622944_);fill:#9DC3DF;}
	.st115{clip-path:url(#SVGID_00000076574937071436339990000018214523931049622944_);fill:#9CC2DF;}
	.st116{clip-path:url(#SVGID_00000076574937071436339990000018214523931049622944_);fill:#9BC2DF;}
	.st117{clip-path:url(#SVGID_00000076574937071436339990000018214523931049622944_);fill:#9AC1DE;}
	.st118{clip-path:url(#SVGID_00000076574937071436339990000018214523931049622944_);fill:#98C0DE;}
	.st119{clip-path:url(#SVGID_00000076574937071436339990000018214523931049622944_);fill:#97C0DE;}
	.st120{clip-path:url(#SVGID_00000076574937071436339990000018214523931049622944_);fill:#96BFDD;}
	.st121{clip-path:url(#SVGID_00000076574937071436339990000018214523931049622944_);fill:#95BEDD;}
	.st122{clip-path:url(#SVGID_00000076574937071436339990000018214523931049622944_);fill:#94BEDD;}
	.st123{clip-path:url(#SVGID_00000076574937071436339990000018214523931049622944_);fill:#93BDDC;}
	.st124{clip-path:url(#SVGID_00000076574937071436339990000018214523931049622944_);fill:#92BCDC;}
	.st125{clip-path:url(#SVGID_00000076574937071436339990000018214523931049622944_);fill:#91BBDB;}
	.st126{clip-path:url(#SVGID_00000076574937071436339990000018214523931049622944_);fill:#8FBBDB;}
	.st127{clip-path:url(#SVGID_00000076574937071436339990000018214523931049622944_);fill:#8EBADB;}
	.st128{clip-path:url(#SVGID_00000076574937071436339990000018214523931049622944_);fill:#8DB9DA;}
	.st129{clip-path:url(#SVGID_00000076574937071436339990000018214523931049622944_);fill:#8CB9DA;}
	.st130{clip-path:url(#SVGID_00000076574937071436339990000018214523931049622944_);fill:#8BB8DA;}
	.st131{clip-path:url(#SVGID_00000076574937071436339990000018214523931049622944_);fill:#8AB7D9;}
	.st132{clip-path:url(#SVGID_00000076574937071436339990000018214523931049622944_);fill:#88B7D9;}
	.st133{clip-path:url(#SVGID_00000076574937071436339990000018214523931049622944_);fill:#87B6D9;}
	.st134{clip-path:url(#SVGID_00000076574937071436339990000018214523931049622944_);fill:#86B5D8;}
	.st135{clip-path:url(#SVGID_00000076574937071436339990000018214523931049622944_);fill:#85B4D8;}
	.st136{clip-path:url(#SVGID_00000076574937071436339990000018214523931049622944_);fill:#84B4D7;}
	.st137{clip-path:url(#SVGID_00000076574937071436339990000018214523931049622944_);fill:#83B3D7;}
	.st138{clip-path:url(#SVGID_00000076574937071436339990000018214523931049622944_);fill:#81B2D7;}
	.st139{clip-path:url(#SVGID_00000076574937071436339990000018214523931049622944_);fill:#80B1D6;}
	.st140{clip-path:url(#SVGID_00000076574937071436339990000018214523931049622944_);fill:#7FB1D6;}
	.st141{clip-path:url(#SVGID_00000076574937071436339990000018214523931049622944_);fill:#7EB0D5;}
	.st142{clip-path:url(#SVGID_00000076574937071436339990000018214523931049622944_);fill:#7DAFD5;}
	.st143{clip-path:url(#SVGID_00000076574937071436339990000018214523931049622944_);fill:#7BAFD5;}
	.st144{clip-path:url(#SVGID_00000076574937071436339990000018214523931049622944_);fill:#7AAED4;}
	.st145{clip-path:url(#SVGID_00000076574937071436339990000018214523931049622944_);fill:#79ADD4;}
	.st146{clip-path:url(#SVGID_00000076574937071436339990000018214523931049622944_);fill:#78ACD4;}
	.st147{clip-path:url(#SVGID_00000076574937071436339990000018214523931049622944_);fill:#77ACD3;}
	.st148{clip-path:url(#SVGID_00000076574937071436339990000018214523931049622944_);fill:#75ABD3;}
	.st149{clip-path:url(#SVGID_00000076574937071436339990000018214523931049622944_);fill:#74AAD2;}
	.st150{clip-path:url(#SVGID_00000076574937071436339990000018214523931049622944_);fill:#73A9D2;}
	.st151{clip-path:url(#SVGID_00000076574937071436339990000018214523931049622944_);fill:#72A9D2;}
	.st152{clip-path:url(#SVGID_00000076574937071436339990000018214523931049622944_);fill:#70A8D1;}
	.st153{clip-path:url(#SVGID_00000076574937071436339990000018214523931049622944_);fill:#6FA7D1;}
	.st154{clip-path:url(#SVGID_00000076574937071436339990000018214523931049622944_);fill:#6EA6D0;}
	.st155{clip-path:url(#SVGID_00000076574937071436339990000018214523931049622944_);fill:#6DA6D0;}
	.st156{clip-path:url(#SVGID_00000076574937071436339990000018214523931049622944_);fill:#6CA5D0;}
	.st157{clip-path:url(#SVGID_00000076574937071436339990000018214523931049622944_);fill:#6AA4CF;}
	.st158{clip-path:url(#SVGID_00000076574937071436339990000018214523931049622944_);fill:#69A3CF;}
	.st159{clip-path:url(#SVGID_00000076574937071436339990000018214523931049622944_);fill:#68A2CE;}
	.st160{clip-path:url(#SVGID_00000076574937071436339990000018214523931049622944_);fill:#66A2CE;}
	.st161{clip-path:url(#SVGID_00000076574937071436339990000018214523931049622944_);fill:#65A1CE;}
	.st162{clip-path:url(#SVGID_00000076574937071436339990000018214523931049622944_);fill:#64A0CD;}
	.st163{clip-path:url(#SVGID_00000076574937071436339990000018214523931049622944_);fill:#639FCD;}
	.st164{clip-path:url(#SVGID_00000076574937071436339990000018214523931049622944_);fill:#619FCC;}
	.st165{clip-path:url(#SVGID_00000076574937071436339990000018214523931049622944_);fill:#609ECC;}
	.st166{clip-path:url(#SVGID_00000076574937071436339990000018214523931049622944_);fill:#5F9DCB;}
	.st167{clip-path:url(#SVGID_00000076574937071436339990000018214523931049622944_);fill:#5E9CCB;}
	.st168{clip-path:url(#SVGID_00000076574937071436339990000018214523931049622944_);fill:#5C9BCB;}
	.st169{clip-path:url(#SVGID_00000076574937071436339990000018214523931049622944_);fill:#5B9BCA;}
	.st170{clip-path:url(#SVGID_00000076574937071436339990000018214523931049622944_);fill:#5A9ACA;}
	.st171{clip-path:url(#SVGID_00000076574937071436339990000018214523931049622944_);fill:#5899C9;}
	.st172{clip-path:url(#SVGID_00000076574937071436339990000018214523931049622944_);fill:#5798C9;}
	.st173{clip-path:url(#SVGID_00000076574937071436339990000018214523931049622944_);fill:#5697C9;}
	.st174{clip-path:url(#SVGID_00000076574937071436339990000018214523931049622944_);fill:#5497C8;}
	.st175{clip-path:url(#SVGID_00000076574937071436339990000018214523931049622944_);fill:#5396C8;}
	.st176{clip-path:url(#SVGID_00000076574937071436339990000018214523931049622944_);fill:#5295C7;}
	.st177{clip-path:url(#SVGID_00000076574937071436339990000018214523931049622944_);fill:#5094C7;}
	.st178{clip-path:url(#SVGID_00000076574937071436339990000018214523931049622944_);fill:#4F93C6;}
	.st179{clip-path:url(#SVGID_00000076574937071436339990000018214523931049622944_);fill:#4E93C6;}
	.st180{clip-path:url(#SVGID_00000076574937071436339990000018214523931049622944_);fill:#4D92C6;}
	.st181{clip-path:url(#SVGID_00000076574937071436339990000018214523931049622944_);fill:#4B91C5;}
	.st182{clip-path:url(#SVGID_00000076574937071436339990000018214523931049622944_);fill:#4A90C5;}
	.st183{clip-path:url(#SVGID_00000076574937071436339990000018214523931049622944_);fill:#498FC4;}
	.st184{clip-path:url(#SVGID_00000076574937071436339990000018214523931049622944_);fill:#478FC4;}
	.st185{clip-path:url(#SVGID_00000076574937071436339990000018214523931049622944_);fill:#468EC3;}
	.st186{clip-path:url(#SVGID_00000076574937071436339990000018214523931049622944_);fill:#448DC3;}
	.st187{clip-path:url(#SVGID_00000076574937071436339990000018214523931049622944_);fill:#438CC3;}
	.st188{clip-path:url(#SVGID_00000076574937071436339990000018214523931049622944_);fill:#428BC2;}
	.st189{clip-path:url(#SVGID_00000076574937071436339990000018214523931049622944_);fill:#408AC2;}
	.st190{clip-path:url(#SVGID_00000076574937071436339990000018214523931049622944_);fill:#3F8AC1;}
	.st191{clip-path:url(#SVGID_00000076574937071436339990000018214523931049622944_);fill:#3E89C1;}
	.st192{clip-path:url(#SVGID_00000076574937071436339990000018214523931049622944_);fill:#3C88C0;}
	.st193{clip-path:url(#SVGID_00000076574937071436339990000018214523931049622944_);fill:#3B87C0;}
	.st194{clip-path:url(#SVGID_00000076574937071436339990000018214523931049622944_);fill:#3A86C0;}
	.st195{clip-path:url(#SVGID_00000076574937071436339990000018214523931049622944_);fill:#3885BF;}
	.st196{clip-path:url(#SVGID_00000076574937071436339990000018214523931049622944_);fill:#3785BF;}
	.st197{clip-path:url(#SVGID_00000076574937071436339990000018214523931049622944_);fill:#3584BE;}
	.st198{clip-path:url(#SVGID_00000076574937071436339990000018214523931049622944_);fill:#3483BE;}
	.st199{clip-path:url(#SVGID_00000076574937071436339990000018214523931049622944_);fill:#3382BD;}
	.st200{clip-path:url(#SVGID_00000076574937071436339990000018214523931049622944_);fill:#3181BD;}
	.st201{clip-path:url(#SVGID_00000076574937071436339990000018214523931049622944_);fill:#3080BC;}
	.st202{clip-path:url(#SVGID_00000076574937071436339990000018214523931049622944_);fill:#2E7FBC;}
	.st203{clip-path:url(#SVGID_00000076574937071436339990000018214523931049622944_);fill:#2D7FBB;}
	.st204{clip-path:url(#SVGID_00000076574937071436339990000018214523931049622944_);fill:#2C7EBB;}
	.st205{clip-path:url(#SVGID_00000076574937071436339990000018214523931049622944_);fill:#2A7DBB;}
	.st206{clip-path:url(#SVGID_00000076574937071436339990000018214523931049622944_);fill:#297CBA;}
	.st207{clip-path:url(#SVGID_00000076574937071436339990000018214523931049622944_);fill:#277BBA;}
	.st208{clip-path:url(#SVGID_00000076574937071436339990000018214523931049622944_);fill:#267AB9;}
	.st209{clip-path:url(#SVGID_00000076574937071436339990000018214523931049622944_);fill:#2579B9;}
	.st210{clip-path:url(#SVGID_00000076574937071436339990000018214523931049622944_);fill:#2378B8;}
	.st211{clip-path:url(#SVGID_00000076574937071436339990000018214523931049622944_);fill:#2278B8;}
	.st212{clip-path:url(#SVGID_00000076574937071436339990000018214523931049622944_);fill:#2077B7;}
	.st213{clip-path:url(#SVGID_00000076574937071436339990000018214523931049622944_);fill:#1F76B7;}
	.st214{clip-path:url(#SVGID_00000076574937071436339990000018214523931049622944_);fill:#1D75B6;}
	.st215{clip-path:url(#SVGID_00000076574937071436339990000018214523931049622944_);fill:#1C74B6;}
	.st216{clip-path:url(#SVGID_00000076574937071436339990000018214523931049622944_);fill:#1A73B6;}
	.st217{clip-path:url(#SVGID_00000076574937071436339990000018214523931049622944_);fill:#1972B5;}
	.st218{clip-path:url(#SVGID_00000076574937071436339990000018214523931049622944_);fill:#1871B5;}
	.st219{clip-path:url(#SVGID_00000076574937071436339990000018214523931049622944_);fill:#1671B4;}
	.st220{clip-path:url(#SVGID_00000076574937071436339990000018214523931049622944_);fill:#1570B4;}
	.st221{clip-path:url(#SVGID_00000076574937071436339990000018214523931049622944_);fill:#136FB3;}
	.st222{clip-path:url(#SVGID_00000076574937071436339990000018214523931049622944_);fill:#126EB3;}
	.st223{clip-path:url(#SVGID_00000076574937071436339990000018214523931049622944_);fill:#106DB2;}
	.st224{clip-path:url(#SVGID_00000076574937071436339990000018214523931049622944_);fill:#0F6CB2;}
	.st225{clip-path:url(#SVGID_00000076574937071436339990000018214523931049622944_);fill:#0D6BB1;}
	.st226{clip-path:url(#SVGID_00000076574937071436339990000018214523931049622944_);fill:#0C6AB1;}
	.st227{clip-path:url(#SVGID_00000076574937071436339990000018214523931049622944_);fill:#0A69B0;}
	.st228{clip-path:url(#SVGID_00000076574937071436339990000018214523931049622944_);fill:#0968B0;}
	.st229{clip-path:url(#SVGID_00000076574937071436339990000018214523931049622944_);fill:#0768AF;}
	.st230{clip-path:url(#SVGID_00000076574937071436339990000018214523931049622944_);fill:#0667AF;}
	.st231{clip-path:url(#SVGID_00000076574937071436339990000018214523931049622944_);fill:#0466AE;}
	.st232{clip-path:url(#SVGID_00000076574937071436339990000018214523931049622944_);fill:#0365AE;}
	.st233{clip-path:url(#SVGID_00000076574937071436339990000018214523931049622944_);fill:#0164AD;}
	.st234{clip-path:url(#SVGID_00000076574937071436339990000018214523931049622944_);fill:#0063AD;}
	.st235{fill:#7BDAFF;}
	.st236{fill:#FFFFFF;}
	.st237{fill:#59BDEF;}
	.st238{fill:url(#SVGID_00000131347691475674126160000014686547949093206668_);}
	.st239{fill:url(#SVGID_00000087396732111796323880000016941033705801401257_);}
	.st240{fill:url(#SVGID_00000086654698861363135410000010823857782605141178_);}
	.st241{fill:url(#SVGID_00000009555276194255478250000006639851700399033994_);}
	.st242{fill:url(#SVGID_00000013153740358650734020000017016827674551395993_);}
	.st243{fill:url(#SVGID_00000086672367717705408070000016663629133055871400_);}
	.st244{fill:url(#SVGID_00000068676531070962539490000008908625061075911871_);}
	.st245{fill:url(#SVGID_00000083066237178851941100000016583560247302285707_);}
	.st246{fill:url(#SVGID_00000021083545296479782330000006803959834419530415_);}
	.st247{fill:#F4A856;}
	.st248{fill:#FCCC6B;}
	.st249{fill:url(#SVGID_00000022539467047339850490000009501518870916360326_);}
	.st250{fill:url(#SVGID_00000023274272852212591360000009092884247520501638_);}
	.st251{fill:#FCE586;}
	.st252{fill:url(#SVGID_00000038391854859172341730000000326990202616139405_);}
	.st253{fill:url(#SVGID_00000002344195826796642180000002442387971566156983_);}
	.st254{opacity:0.5;fill:#7BDAFF;}
	.st255{fill:none;stroke:#4E71FF;stroke-width:2;stroke-miterlimit:10;}
	.st256{fill:#4E71FF;}
	.st257{fill:none;stroke:#EE8922;stroke-width:3;stroke-linecap:round;stroke-miterlimit:10;}
	.st258{fill:none;stroke:#EF8923;stroke-width:3;stroke-linecap:round;stroke-miterlimit:10;}
	.st259{fill:url(#SVGID_00000181059906487310948920000009260471165358225592_);}
	.st260{fill:#A52828;}
	.st261{fill:url(#SVGID_00000074410256201011272340000000367327568196427908_);}
	.st262{fill:#DB2F2D;}
	.st263{fill:#A1191B;}
	.st264{fill:#EE8922;stroke:#C92D2B;stroke-width:4;stroke-linecap:round;stroke-miterlimit:10;}
	.st265{fill:#010101;}
	.st266{fill:#050505;}
	.st267{fill:#030303;}
	.st268{fill:#020202;}
	.st269{fill:#070607;}
	.st270{fill:#C33739;}
	.st271{fill:#A43C37;}
	.st272{fill:#060606;}
	.st273{fill:#B43E40;}
	.st274{fill:#070707;}
	.st275{fill:#D45456;}
	.st276{fill:#AE5051;}
	.st277{fill:#B6383A;}
	.st278{fill:#A43E3C;}
	.st279{fill:#804443;}
	.st280{fill:#B93B3B;}
	.st281{fill:#161616;}
	.st282{fill:#1A1A1A;}
	.st283{fill:#171717;}
	.st284{fill:#B53A3B;}
	.st285{fill:#151515;}
	.st286{fill:#BB383C;}
	.st287{fill:#1E1E1E;}
	.st288{fill:#191919;}
	.st289{fill:#212121;}
	.st290{fill:#1D1D1D;}
	.st291{fill:#3D3D3D;}
	.st292{fill:#B23D3B;}
	.st293{fill:#2A2A2A;}
	.st294{fill:#CEBABB;}
	.st295{fill:#E4BDBC;}
	.st296{fill:#AEAEAE;}
	.st297{fill:#8A8A8A;}
	.st298{fill:#C27F7A;}
	.st299{fill:#343434;}
	.st300{fill:#838383;}
	.st301{fill:#B9B9B9;}
	.st302{fill:#8C8C8C;}
	.st303{fill:#898989;}
	.st304{fill:#7E7E7E;}
	.st305{fill:#DF2D2C;}
	.st306{fill:#E22D2A;}
	.st307{fill:#AF3535;}
	.st308{fill:#E52B2B;}
	.st309{fill:#FEFEFE;}
</style>
<g>
	<path class="st265" d="M771.09,581.72c-16.35-0.4-29.69-3.04-42.58-10.07c-15.64-8.53-27.93-20.08-38.26-34.21
		c-3.44-4.7-5.04-10.43-8.92-14.94c-0.93-1.08-2.32-4.1,1.76-5.62c5.61-2.09,10.71-5.58,16.01-8.52c4.2-2.33,6.82-0.86,9.48,2.9
		c8.67,12.29,16.89,25.25,29.63,33.69c5.07,3.36,11.08,6.64,17.82,6.69c7.21,0.06,14.45,0.36,21.64,0.01
		c8.81-0.43,15.69-5.51,22.84-10.1c11.43-7.33,16.7-18.81,20.61-30.77c1.92-5.88,1.55-12.57-0.54-19.13
		c-2.9-9.13-7.13-17.22-13.36-24.4c-8.55-9.85-18.11-18.55-28.45-26.48c-9.32-7.14-18-15.15-27.58-21.91
		c-11.12-7.86-21.21-16.77-30.28-26.8c-7.51-8.3-14.06-17.05-18.19-27.96c-5.35-14.08-5.25-28.26-2.16-42.02
		c3.83-17.07,14.24-30.56,29.55-39.77c9.08-5.46,18.97-8.14,29.17-11.08c14.01-4.05,26.16,0.68,38.32,3.84
		c8.15,2.12,16.82,6.72,23.48,12.82c8.95,8.2,17.3,17.12,23.16,27.94c2.12,3.9-1.16,7.36-3.23,9.2c-4.5,4.01-9.99,7.01-15.36,9.89
		c-2.19,1.18-4.25,0.9-6.31-2.29c-5.73-8.88-12.94-16.32-21.9-22.57c-11.49-8.02-23.77-9.5-36.78-8.29
		c-8.82,0.82-16.27,5.28-22.51,11.6c-8.78,8.91-10.77,20.25-9.08,31.71c1.34,9.09,5.93,17.24,11.98,24.77
		c8.64,10.75,19.49,18.77,30.23,26.86c8.88,6.68,18.18,12.84,26.98,19.69c15.44,12.02,30.15,24.61,40.63,41.62
		c5.3,8.61,8.27,17.6,10.89,27.27c1.91,7.07,3.02,13.79,2.45,20.81c-1.35,16.71-6.73,31.82-17.56,45.04
		c-10.14,12.37-21.99,21.51-37.72,25.7c-2.86,0.76-5.92,2.89-8.99,3.17C781.66,580.58,775.42,582.6,771.09,581.72z"/>
	<path class="st265" d="M690.87,408.18c-0.12,4.53-0.53,9.08-0.28,13.6c0.26,4.64-0.99,6.32-6.09,6.27
		c-20.22-0.17-40.49-0.52-60.66,0.6c-15.73,0.87-31.42,2.11-47.18,1.68c-3.99-0.11-3.57,2.19-3.57,4.74
		c0,21.04-0.04,42.09-0.06,63.13c-0.02,22.7-0.12,45.39,0.06,68.09c0.04,4.64-0.75,5.7-5.8,4.84c-7.22-1.23-13.53-5.11-20.76-5.97
		c-3.88-0.46-4.45-2.99-4.43-6.42c0.2-30.95-1-61.96,0.63-92.83c3.01-56.95,0.57-113.9,1.64-170.83c0.1-5.45-2.38-12.41,1.27-15.94
		c3.41-3.29,10.26-0.99,15.59-1c41.28-0.04,82.56,0.15,123.83-0.08c5.34-0.03,5.97,1.84,5.67,6.29c-0.4,5.75-0.27,11.54-0.14,17.31
		c0.08,3.52-0.82,4.95-4.84,4.97c-35.28,0.19-70.56,0.83-105.84,0.85c-5.96,0-7.01,1.85-6.93,7.22c0.41,25.99,0.6,51.99,0.48,77.98
		c-0.03,5.48,1.52,6.77,6.95,6.75c36.74-0.19,73.47,0.02,110.21,0.1C692.63,402.37,692.35,405.26,690.87,408.18z"/>
	<path class="st265" d="M336.75,348.88c-2.46,11.93-3.18,23.98-2.45,36.13c0.11,1.84,0.2,3.67,0.33,5.51
		c0.08,1.14-0.87,2.82,0.7,3.22c1.24,0.32,2.87-0.42,3.48-1.77c3.35-7.35,7.47-14.29,10.7-21.74c3.97-9.17,8.48-18.18,12.51-27.3
		c3.85-8.71,8.12-17.32,11.35-26.3c4.73-13.11,11.76-24.86,20.04-35.96c1.57-2.11,2.62-1.96,4.72-0.31
		c4.68,3.69,5.37,9.59,8.19,14.24c7.32,12.1,13.13,25.13,19.32,37.89c6.06,12.5,12.82,24.77,17.98,37.55
		c4.93,12.18,11.45,23.48,16.77,35.4c7.06,15.79,13.98,31.67,21.66,47.22c5.99,12.12,11.48,24.62,17.05,36.99
		c6.68,14.84,13.33,29.75,21.21,44.12c4.09,7.46,8.59,15.31,10.57,23.9c1.1,4.76,5.5,8.23,4.66,14.2
		c-16.44-2.19-31.59-8.72-46.72-15.33c-0.85-0.88-0.88-2.02-0.21-2.81c4.94-5.74,4.79-12.32,3.69-19.25
		c-0.64-4.05-0.22-8.21-0.29-12.32c-0.07-3.9-1.82-6.32-6.38-5c-0.64-0.35-0.49,1.28-0.35,0.47c0.02-0.13,0.15-0.01,0.41,0
		c2.77,0.15,3.41,2.16,3.37,4.29c-0.05,2.79-2.56,1.97-4.19,2.45c-1.88,0.54-3.64,0.63-5.28-0.63c-6.52-10.99-10.91-23-16.33-34.51
		c-7.27-15.42-15.13-30.59-22.08-46.12c-7.46-16.68-16.48-32.68-22.58-49.97c-2.07-5.86-5.8-10.86-8.41-16.47
		c-3.81-8.19-6.9-16.73-11.39-24.6c-0.79-1.39-1.1-3.52-2.92-3.67c-2.05-0.17-2.16,2.12-2.98,3.45
		c-8.08,13.15-13.34,27.73-20.8,41.21c-3.35,6.05-4.52,13.24-8.85,18.91c-0.89,0.88-1.95,1.51-3.16,1.77
		c-5.88,1.27-9.69,5.33-10.43,11.36c-0.2,1.6-0.13,3.21-0.52,4.83c-1.6,6.67-3.14,7.89-10.18,7.5c-1.58-0.09-3.3,0.4-4.68-0.86
		c-0.83-0.78-2.08-1.41-2.43-2.37c-8.05-21.98-10.86-44.51-5.24-67.42c1.75-7.11,4.55-14.22,8.62-20.58
		C337.38,346.18,337.17,347.46,336.75,348.88z"/>
	<path class="st266" d="M961.92,850.36c-13.4-1.3-23.03-9.45-31.72-18.5c-13.95-14.52-18.09-32.41-13.7-51.62
		c2.4-10.49,7.41-19.74,15.41-28.36c19.51-21.02,43.01-21.98,67.78-16.34c9.29,2.12,18.71,7.15,25.39,15.2
		c0.85,1.02,2.07,1.19,3.21,1.64c0.81,0.32,1.9,1.58,1.8,2.27c-0.52,3.64-5.44,2.86-6.65,6.35c-0.36,1.03-2.4,0.03-3.89-1.22
		c-6.94-5.83-14.47-10.51-23.26-13.61c-7.98-2.82-15.91-3.31-23.81-2.29c-13.16,1.69-24.87,6.51-33.91,17.24
		c-6.91,8.2-10.47,17.5-12.38,27.61c-1.58,8.37,2.12,15.85,5.2,23.37c2.82,6.89,7.02,12.63,12.34,17.87
		c3.84,3.78,8.55,5.83,13.08,7.98c9.71,4.62,20.44,6.96,30.85,4.59c14.78-3.37,28.97-8.4,34.07-25.62
		c3.22-10.86,3.78-10.74-7.47-10.85c-7.43-0.07-14.87-0.28-22.28,0.1c-5.39,0.28-3.77-3.27-4.13-6.04
		c-0.45-3.44,0.72-4.57,4.31-4.51c13.2,0.22,26.42,0.27,39.62-0.01c4.07-0.09,4.58,1.35,4.61,4.92c0.14,17.7-7.98,31.36-20.84,42.51
		c-3.2,2.78-7.46,4.81-11.58,5.97c-11.62,3.28-23.49,5.29-35.66,3.59C966.57,850.72,963.7,852.09,961.92,850.36z"/>
	<path class="st266" d="M295.37,785.99c-1.66-1.87-0.45-4.64-2.02-6.54c-5.66-43.95-65.03-62.11-97.09-32.89
		c-47.15,41.79-11.33,115.12,50.86,106c1.74-1.84,4.65-0.42,6.38-2.32c19.85-5.9,37.34-23.27,39.88-44.43
		c1.55-1.9,0.31-4.68,2.05-6.53C295.89,794.86,295.89,790.42,295.37,785.99z M185.44,793.75c-2.46-65.15,100.65-67.99,97.75-1.7
		C286.26,862.01,184.08,854.73,185.44,793.75z"/>
	<path class="st267" d="M814.02,763.42c-2.78,1.91-2.62,4.5-2.61,7.2c0.05,24.33,0.03,48.67,0,73c-0.01,5.24-4.7,8.24-9.25,5.9
		c-2.18-1.12-1.12-3.29-1.12-4.94c-0.07-25.16-0.05-50.32-0.05-75.48c0-10.1-0.03-20.21,0.05-30.31c0.01-1.29-0.89-3.11,0.91-3.82
		c1.85-0.73,2.06,1.12,2.96,2.17c10.37,11.99,21.12,23.68,31.41,35.69c7.23,8.43,14.39,17.09,21.46,25.74
		c6.51,7.97,13.88,15.25,19.8,23.74c0.82,1.18,2.28,1.07,2.61-0.62c0.27-1.39,0.07-2.87,0.07-4.32c0-25.78,0.05-51.56-0.05-77.33
		c-0.01-3.51,0.14-5.87,4.78-5.31c3.54,0.43,6.49-0.35,6.45,5.26c-0.29,35.05-0.15,70.11-0.21,105.16c0,1.42,1.13,3.56-1.41,4.05
		c-1.98,0.38-2.48-1.32-3.57-2.59c-6.97-8.12-14.5-15.78-21.27-24.06c-5.05-6.18-10.33-12.09-15.72-17.96
		c-6.42-6.98-12.13-14.61-18.28-21.84C825.41,776.2,819.66,769.83,814.02,763.42z"/>
	<path class="st268" d="M325.46,491.03c-5.04,4.29-4.95,11.11-8.04,16.46c-3.44,5.95-4.83,13.04-7.71,19.36
		c-3.23,7.08-7.33,13.76-10.66,20.79c-2.3,4.85-4.54,9.71-7.38,14.27c-2.24,3.59-4.55,6.95-7.91,9.85
		c-2.36,2.04-4.37,2.38-6.93,2.39c-6.39,0.01-12.78-0.21-19.16,0.01c-4.84,0.17-5.25-1.72-3.18-5.4c5.88-10.43,9.8-21.79,15.89-32.2
		c2.79-4.76,4.92-10.42,7.04-15.8c3.74-9.5,9.52-18.19,13.36-27.65c3.48-8.56,8.35-16.44,11.42-25.15c0.86-2.45,1.33-5.06,3.42-6.89
		c2.74-3.33,4.48-0.67,6.48,1.02c4.18,3.53,4.53,9.65,8.93,13.01c1.11,3.11,2.95,5.88,4.26,8.88
		C326.25,486.2,327.14,488.64,325.46,491.03z"/>
	<path class="st267" d="M319.12,733.72c8.17,6.99,13.23,14.51,19.06,21.26c10.85,12.56,21.73,25.11,32.22,37.99
		c7.12,8.74,15.38,16.65,22.24,25.71c1.15,1.51,3.04,2.8,4.34,2.29c1.96-0.77,1.12-3.25,1.11-5.04
		c-0.04-24.56-0.15-49.11-0.12-73.67c0-3.4-1.87-7.63,5.08-7.67c6.62-0.04,5.37,3.67,5.37,7.36c0.02,34.26,0.04,68.52-0.02,102.77
		c0,1.44,1.11,3.63-1.07,4.28c-2,0.59-2.9-1.09-4.14-2.63c-6.05-7.52-12.25-14.92-18.77-22.07c-4.92-5.4-9.77-10.93-14.53-16.5
		c-7.8-9.14-15.4-18.46-23.17-27.62c-3.27-3.86-6.76-7.53-10.18-11.26c-1.36-1.49-2.59-3.63-5.03-2.78
		c-2.48,0.86-1.13,3.2-1.13,4.78c-0.09,24.35-0.22,48.71,0.1,73.06c0.07,5.06-2.01,5.65-6.08,5.74c-4.23,0.09-5.41-1.36-5.39-5.64
		c0.19-34.67,0.11-69.34,0.11-104.01C319.12,738.47,319.12,736.88,319.12,733.72z"/>
	<path class="st269" d="M480.37,523.28c1,0.13,2.81,0.51,2.86,0.34c0.81-2.63,4.54,1.66,4.69-2c0.15-3.46-2.67-3.12-5.38-3.13
		c5.87-5.24,10.63-4.78,10.68,0.86c0.08,9.28,2,18.47,0.84,27.83c-0.52,4.17-4.99,5.47-5.24,9.39c-6.81-0.53-11.93-5.3-18.28-7.23
		c-6.34-1.92-12.15-5.58-18.16-8.54c-10.7-5.27-21.61-10.02-31.66-16.66c-5.36-3.54-10.94-6.93-16.5-10.26
		c-8.43-5.04-16.04-11.21-23.65-17.43c-6.51-5.32-12.83-10.63-18.36-17.04c-6.22-7.2-12.17-14.58-17.27-22.57
		c-4.1-6.42-9.09-12.45-10.66-20.23c1.38-0.36,2.77-1.05,4.15-1.04c8.37,0.1,9.9-0.78,9.79-8.27c-0.07-4.95,0.05-8.86,5.31-11.34
		c2.71-1.28-2.6-3.68,0.13-6.13c2.27,2.87,5.25,3.73,8.7,2.02c2.44,2.9-0.48,4.77-1.37,7.02c-1.86,4.7-3.84,9.33-7.46,13
		c-5.24,0.67-0.37,2.38-0.34,3.6c0.17,10.83,7.49,17.43,13.76,25.13c13.03,16.03,29.18,28.2,45.85,39.84
		c9.74,6.8,19.73,13.29,29.84,19.52c12.92,7.97,26.84,14.04,40.91,19.71c0.55,0.22,1.22,0.19,2.13-0.6
		c-1.1-3.6-2.16-7.44-4.39-10.92C480.38,526.7,478.52,525.29,480.37,523.28z"/>
	<path class="st266" d="M106.33,852.79c-9.81,2.02-18.79-1.92-27.47-4.87c-8.62-2.93-15.63-9.4-21.43-16.79
		C46.52,817.2,41.69,801.38,44.31,784c1.82-12.06,6.99-22.71,15.51-32.24c17.42-19.5,39.38-21.18,62.67-17.7
		c12.49,1.87,22.11,9.77,30.52,18.96c3.32,3.63-0.39,5.44-2.16,7.2c-1.76,1.74-4.22,2.78-6.52-0.2
		c-9.96-12.96-23.92-16.94-39.42-16.81c-11.41,0.1-22.29,3.45-31.08,10.44c-9.97,7.93-17.07,18.28-18.03,31.76
		c-0.82,11.55-0.1,22.8,5.67,33.2c3.71,6.68,8.96,12.12,15.38,15.91c10.53,6.23,22.1,9.64,34.48,8.15
		c12.49-1.5,24.04-5.65,32.64-15.4c2.8-3.18,4.78-2.38,7.44-0.31c3.26,2.54,3.76,4.76,0.37,7.79c-8.53,7.61-17.55,13.45-29.2,16.09
		C117.05,852.1,111.67,851.96,106.33,852.79z"/>
	<path class="st267" d="M529.5,742.52c0.06,22.06,0.1,44.13,0.2,66.19c0.02,4.12-0.1,8.29,0.45,12.35
		c1.19,8.88,5.7,14.95,14.15,19.12c10.2,5.03,19.43,3.28,27.98-2.21c6.42-4.12,10.32-11.24,10.47-18.94
		c0.5-25.98,0.39-51.96,0.45-77.95c0.01-3.83,0.21-6.58,5.52-6.41c4.33,0.14,5.5,1.29,5.46,5.55c-0.18,22.48,0.02,44.96-0.1,67.44
		c-0.05,9.64-2.05,19.07-6.09,27.76c-2.91,6.26-8.56,10.41-14.5,13.96c-7.27,4.35-15.38,4.4-23.13,3.32
		c-9.87-1.38-24.97-9.09-29.43-21.5c-2.67-7.42-3.39-14.88-3.5-22.41c-0.31-21.65-0.11-43.31-0.11-64.96c0-9.45,0-9.45,9.86-8.61
		C529.5,737.15,527.5,740.47,529.5,742.52z"/>
	<path class="st266" d="M434.08,755.9c2.74-20.38,23.84-29.56,41.6-18.87c4.56,2.74,7.75,6.18,11.33,9.66
		c5.25,5.12-1.21,6.94-2.92,9.29c-2.28,3.14-3.71,0.41-5.5-2.13c-5.22-7.38-12.38-12.14-21.85-9.93c-4.31,1.01-9.63,2.84-10.76,7.83
		c-1.26,5.55-2.34,11.5,1.76,16.87c8.29,10.85,20.7,16.91,30.2,26.31c9.48,9.38,18.48,19.21,14.33,34.14
		c-2.73,9.81-9.15,16.73-18.58,20.99c-10.44,4.71-20.29,3.55-30.18-1.61c-7.44-3.88-11.75-10.76-16.23-17.16
		c-2.16-3.08,3.79-3.43,5.2-5.95c0.47-0.84,2.64-0.96,4.45,1c2.85,3.08,3.96,7.1,7.74,9.87c13.32,9.75,22.71,9.04,33.16-2.46
		c5.68-6.25,1.65-21.93-5.67-29c-8.69-8.38-18.8-14.91-27.78-22.88c-5.88-5.22-9.67-11.48-10.21-19.47
		C432.81,760.25,432.87,758.08,434.08,755.9z"/>
	<path class="st270" d="M806,158.07c2.7,1.46,2.45,4.04,2.18,6.42c-2.9,25.68-2.17,51.47-2.36,77.23c-0.03,4.49-1.09,8-7,5.04
		c-2.7-1.36-6.15,0.62-8.95-1.25c-0.19-0.36-0.54-0.73-0.54-1.1c0.07-24.23-0.55-48.46,0.29-72.69c4.6,1.17,3.32,5.07,3.36,7.96
		c0.21,16.91,0.08,33.83,0.11,50.74c0,2.27-0.09,4.55,0.47,6.77c0.38,1.5,1.18,2.73,2.89,2.66c1.51-0.07,1.86-1.39,2.16-2.62
		c0.1-0.4,0.22-0.82,0.19-1.22c-0.99-11.4,2.79-22.46,2.57-33.75c-0.22-11.17,1.4-22.22,1.28-33.35c-0.08-7.77-1.24-8.88-9.14-8.89
		c-35.49-0.07-70.98-0.03-106.47-0.03c-130.82,0-261.64,0-392.46-0.03c-4.1,0-8.27,0.56-12.25-1.05c-1.8-1.35-3.17-2.81-1.24-5.07
		c1.85-0.28,3.7-0.16,5.56-0.16c170.59-0.01,341.17,0,511.76-0.02C801.83,153.66,805.62,152.88,806,158.07z"/>
	<path class="st271" d="M292.07,614.11c0.27,15.24,0.75,30.48,0.71,45.71c-0.01,4.84,1.43,6.14,6.24,6.12
		c40.43-0.18,80.87-0.13,121.3-0.06c46.58,0.08,93.16,0.32,139.73,0.35c31.11,0.02,62.21-0.32,93.32-0.33
		c30.25-0.01,60.51,0.27,90.76,0.29c14.84,0.01,29.68-0.28,44.53-0.44c0.19,0.37,0.38,0.73,0.57,1.1c0.32,3.13-1.89,3.8-4.22,4.24
		c-2.65,0.5-5.35,0.35-8.03,0.35c-157.71,0.01-315.43,0.01-473.14,0c-13.24,0-14.68-1.14-15.1-14.25
		c-0.46-14.44-0.18-28.89-0.09-43.33c0.01-2.07,0.18-4.14,1.46-5.91C292.8,608.49,292.8,608.49,292.07,614.11z"/>
	<path class="st272" d="M722.95,797.53c0,15.66-0.31,31.33,0.17,46.98c0.17,5.76-3.1,4.84-6.46,5.2c-3.96,0.42-4.8-1.35-4.78-4.99
		c0.17-30.91,0.07-61.82,0.33-92.73c0.04-4.39-0.54-6.37-5.54-5.91c-5.52,0.5-11.13-0.09-16.68,0.15c-5.09,0.23-4.11-3.25-4.29-6.19
		c-0.19-3.15-0.01-5.35,4.37-5.29c17.93,0.24,35.87,0.29,53.8,0.01c5.66-0.09,3.64,3.58,3.83,6.16c0.21,2.73,0.97,5.81-3.96,5.39
		c-5.53-0.47-11.14,0.16-16.68-0.21c-3.74-0.25-4.23,1.12-4.19,4.45C723.06,766.2,722.95,781.87,722.95,797.53z"/>
	<path class="st272" d="M622.74,791.84c0-17.33,0.15-34.67-0.11-52c-0.06-4.23,1.34-5.2,5.25-5.11c3.82,0.09,5.92,0.49,5.88,5.26
		c-0.21,31.36-0.01,62.73-0.24,94.1c-0.03,4.16,0.95,5.13,4.97,5.05c11.76-0.23,23.54,0.2,35.29-0.1c4.11-0.11,4.75,1.3,4.66,4.9
		c-0.09,3.47-0.28,5.74-4.73,5.69c-15.48-0.16-30.96-0.13-46.44,0.05c-4.03,0.05-4.63-1.68-4.59-5.22
		c0.17-17.54,0.08-35.08,0.08-52.62C622.76,791.84,622.75,791.84,622.74,791.84z"/>
	<path class="st273" d="M280.75,154.38c0.4,1.19,0.79,2.38,1.19,3.57c-2.79,6.16-1.73,12.71-1.94,19.14
		c-0.03,3.69-0.16,7.37,0.15,11.06c-0.03,8.97,0.22,17.95-0.12,26.92c-0.12,17.48-0.02,34.96-0.03,52.43
		c0.13,2.33,0.23,4.66,0.01,6.99c-0.04,5.74-0.14,11.48,0.08,17.21c0.07,4.69,0.29,9.38-0.53,14.03c-0.65,2.19-0.82,4.43-0.82,6.71
		c0.04,35.43-0.08,70.86,0.08,106.28c0.35,11.04-0.27,22.12,0.84,33.29c2.54-3.07,4.77-6.25,5.07-10.22
		c1.52-20.29,5.86-40.34,5.22-60.82c-1.02-32.71,0.7-65.58-1.81-98.12c-2.16-28.05-0.78-55.97-1.97-83.91
		c-0.34-7.98,2.91-15.35,3.12-23.2c0.05-1.85,1.13-3.53,3.07-4.32c0.94,0.19,1.21,0.73,0.82,1.61c-2.52,32.76-1.62,65.58-1.22,98.36
		c0.34,27.59,0.72,55.19,1.84,82.75c0.29,7.12,0.14,14.02-0.3,21.06c-0.28,4.56-0.44,9.1,1.41,13.77c1.2,3.04,1,7.04-0.65,10.77
		c-2.72,6.15-1.39,13.02-1.85,19.53c-0.77,11.06-2.93,21.74-6.15,32.22c-2.04,6.65-4.35,13.33-9.06,18.76
		c-4.45-0.45-1.51-4.97-3.68-6.68c0.04-7.22,0.2-14.44,0.08-21.65c-0.08-4.47,3.54-8.46,1.89-12.92c-1.22-3.29-1.99-6.48-1.73-9.96
		c3.79-50.27,0.96-100.64,2.38-150.94c0.43-17.29,0.47-34.58-0.02-51.87c0-9.12,0-18.24,0-27.36c0.4-9.05,0.62-18.09-0.12-27.13
		c0.44-2.87-1.64-6.4,2.2-8.38C278.99,153.83,280.18,153.33,280.75,154.38z"/>
	<path class="st274" d="M774.98,792.06c0,17.52-0.29,35.05,0.16,52.56c0.15,5.98-3.32,4.71-6.58,4.88c-3.5,0.18-6.09,0.2-6.06-4.9
		c0.22-34.63,0.26-69.26-0.03-103.88c-0.05-5.97,2.9-5.67,7.11-5.99c5.04-0.38,5.54,1.81,5.49,6.01
		C774.85,757.84,774.98,774.95,774.98,792.06z"/>
	<path class="st275" d="M293.17,173.03c-0.05-0.48-0.09-0.95-0.14-1.43c-0.74-4.19,2.14-4.29,4.99-4.45
		c3.71,0.37,7.42,0.21,11.13,0.21c156.1,0.01,312.2,0.01,468.29,0.02c3.49,0,7.01-0.33,10.48,0.46c1.68,0.71,2.92,1.66,1.94,3.75
		c0,24.64,0,49.28,0,73.91c-1.88-2.35-1.14-5.13-1.16-7.73c-0.08-19.6-0.33-39.2,0.07-58.79c0.13-6.31-2.28-7.62-7.88-7.6
		c-40.24,0.16-80.49,0.09-120.73,0.11c-117.43,0.05-234.86,0.11-352.29,0.18C302.94,171.67,297.98,171.61,293.17,173.03z"/>
	<path class="st276" d="M292.07,614.11c-0.65-2.15,0.52-4.66-1.31-6.57c-1.03-0.06-2.06-0.09-3.09-0.14
		c-7.06-0.32-8.49,0.75-8.58,7.85c-0.23,18.96-0.22,37.92,0,56.88c0.07,6.29,1.39,7.32,7.86,7.62c2.47,0.11,4.95,0.05,7.42,0.05
		c85.97,0,171.94-0.01,257.92,0.03c3.88,0,7.86-0.62,11.57,1.2c1.2,0.87,1.3,1.94,0.55,3.15c-12.79,0.09-25.57,0.25-38.36,0.24
		c-81.11-0.03-162.21-0.09-243.32-0.15c-7.16,0-9.31-1.96-9.35-9.29c-0.12-17.74-0.09-35.48-0.03-53.22
		c0.02-5.73,2.83-11.05,2.65-16.86c-0.05-1.57,1.45-2.01,2.91-2.62c4.54-1.88,9.43-0.72,12.84,1.05
		C293.86,604.45,293.87,610.35,292.07,614.11z"/>
	<path class="st277" d="M320.03,475.12c-1.75-0.15-2.9-0.69-3.43-2.75c-1.07-4.21-4.41-7.13-6.73-10.63c-1.33-2-2.75-1.09-4.26-0.68
		c2.19-8.46-1.12-16.31-2.72-24.34c-2.07-10.42-3.24-21.08-3.89-31.53c-0.53-8.59,2.56-17.67,5.41-26.07
		c1.05-3.1,2.6-6.63,3.72-9.74c3.1-8.61,10.16-14.72,13.03-23.7c2.36,1.71,1.45,3.07,0.92,4.92c-4.65,16.35-9.13,32.67-8.07,50.05
		c0.82,13.43,4.59,25.81,9.67,38.11c2.97,7.19,5.89,14.19,10.1,20.85c4.87,7.7,11.16,14.17,16.34,21.54
		c-0.24,0.23-0.48,0.47-0.71,0.7c-3.2,1.38-5.39,0.13-7.46-2.43c-9.76-12.06-17.87-24.88-23.49-39.58
		c-6.62-17.33-11.32-34.69-9.28-54.85c-3.22,6.5-4.31,11.8-4.57,17.59c-0.64,14.81,2.8,28.96,5.38,43.33
		c1.28,7.11,4.24,12.59,8.66,17.9c2.58,3.09,5.13,6.64,3.22,11.23C321.27,475.53,320.66,475.55,320.03,475.12z"/>
	<path class="st278" d="M564.4,684.18c-0.01-0.79-0.02-1.57-0.04-2.36c3.14-2.84,7.04-1.93,10.65-1.94
		c71.63-0.06,143.25-0.04,214.88-0.04c13.48,0,14.82-1.45,13.25-15.22c-0.57-5.02,0.54-9.87,0.83-14.79
		c0.65-11.38-1.29-22.64-1.52-33.97c-0.06-3.03-0.57-7.21-4.14-7.41c-3.8-0.22-3.63,4.32-4.65,7.02c-0.95,2.52-0.63,5.3-0.63,7.98
		c-0.04,11.97,0.18,23.94-0.15,35.9c-0.07,2.64,0.88,6.67-4.13,6.5l-0.09-0.09c1.82-14.13,0.43-28.32,0.83-42.48
		c0.14-4.92-0.04-9.83,0.56-14.77c0.79-6.52,5.32-5.89,9.84-6.07c5.07-0.2,5.42,3.34,5.93,6.86c0.2,1.42,0.22,2.86,0.32,4.3
		c2.33,3.53-0.28,7.95,2.06,11.48c0.01,16.92-0.01,33.83,0.04,50.75c0.02,8.85,0.07,8.89-8.7,8.88
		c-45.99-0.05-91.97-0.11-137.96-0.21C629.19,684.42,596.8,684.29,564.4,684.18z"/>
	<path class="st279" d="M280.75,154.38c-0.85-0.34-1.7-0.68-2.55-1.02c1.84-0.11,3.68-0.33,5.52-0.33
		c172.11-0.02,344.23-0.03,516.34-0.03c3.42,0,7.63-0.92,5.94,5.06c-1.5-4.35-5.12-3.8-8.6-3.8c-117.98,0.01-235.95-0.01-353.93,0
		C389.23,154.28,334.99,154.34,280.75,154.38z"/>
	<path class="st280" d="M441.7,571.64c-7.51-2.16-13.92-6.63-20.89-9.84c-9.19-4.24-17.24-10.13-25.81-15.26
		c-8.63-5.17-16.96-10.85-25.29-16.5c-1.2-0.81-1.7-2.65-2.53-4.01c0.21-0.23,0.42-0.47,0.62-0.7c2.84-0.87,5.6,0.2,7.62,1.65
		c6.01,4.33,12.95,7.34,18.71,11.72c11.18,8.49,23.57,14.69,35.69,21.46c2,1.12,3.85,2.41,5.6,3.81c3.02,2.43,6.31,3.37,10.22,3.59
		c7.15,0.4,14.18,1.84,20.73,4.97c1.33,0.64,2.7,1.02,4.16,1.04c6.39,0.13,12.77,0,19.16,0.07c2.55,0.03,4-0.72,3.4-3.57
		c0.22-1.88,1.95-2.2,3.16-3.05c4.71,4.03,11.28,4.59,16.39,9.18c-1.84,0.18-3.45,0.39-5.08,0.49c-6,0.37-11.95-0.36-17.99,1.7
		c-6.06,2.07-12.09-2.33-18.51-1.83c-7.36,0.58-14.78-0.01-21.88-2.5C447.17,571.77,443.76,573.8,441.7,571.64z"/>
	<path class="st281" d="M115.96,896.35c0,7.17,0.03,12.84-0.02,18.52c-0.01,1.49,0.67,3.53-2.12,3.43
		c-2.64-0.09-2.08-2.03-2.09-3.55c-0.04-7.41-0.06-14.82,0.02-22.22c0.01-1.29-0.75-3.04,1.12-3.74c1.93-0.73,2.97,0.62,4.03,1.96
		c4.91,6.19,9.87,12.35,15.99,19.99c0-7.6-0.02-13.27,0.02-18.94c0.01-1.33-0.43-3,1.8-3.18c2.68-0.23,2.3,1.65,2.3,3.24
		c0.02,7.41,0.07,14.82-0.05,22.22c-0.02,1.4,1.14,3.48-1.23,4.15c-1.94,0.55-2.91-0.92-3.96-2.23
		C126.84,909.82,121.87,903.69,115.96,896.35z"/>
	<path class="st281" d="M286.49,908.54c0-5.32-0.06-10.64,0.04-15.96c0.03-1.61-0.94-4.08,2.24-3.95c2.75,0.11,1.8,2.3,1.81,3.69
		c0.09,7.41,0.09,14.82-0.01,22.22c-0.02,1.24,0.93,3.02-1.08,3.66c-1.93,0.61-2.96-0.73-4.02-2.06
		c-4.94-6.21-9.93-12.39-15.9-19.81c0,7.1,0.05,12.75-0.03,18.39c-0.02,1.43,0.83,3.52-1.95,3.6c-2.64,0.07-2.26-1.81-2.26-3.4
		c-0.02-7.61-0.03-15.23,0.01-22.84c0.01-1.31-0.57-3.03,1.57-3.42c1.71-0.31,2.58,0.82,3.5,1.97c4.95,6.22,9.92,12.42,14.89,18.62
		C285.69,909.01,286.09,908.77,286.49,908.54z"/>
	<path class="st281" d="M488.83,896.35c0,7.16,0.03,12.83-0.02,18.5c-0.02,1.48,0.7,3.53-2.1,3.45c-2.64-0.07-2.11-2.01-2.11-3.54
		c-0.04-7.41-0.06-14.82,0.02-22.22c0.01-1.3-0.74-3.04,1.1-3.76c1.92-0.74,2.97,0.59,4.04,1.94c4.92,6.2,9.88,12.36,16.01,20.01
		c0-7.59,0-13.25,0-18.92c0-1.69-0.13-3.42,2.42-3.2c2.3,0.19,1.68,1.95,1.69,3.22c0.05,7.41,0.09,14.82-0.03,22.22
		c-0.02,1.4,1.14,3.47-1.21,4.17c-1.93,0.57-2.91-0.89-3.97-2.21C499.72,909.84,494.74,903.69,488.83,896.35z"/>
	<path class="st281" d="M974.42,896.27c0,7.39,0,13.1,0,18.8c0,1.62,0.32,3.43-2.34,3.22c-2.19-0.17-1.9-1.74-1.9-3.13
		c-0.02-7.82-0.03-15.64,0.01-23.46c0-1.15-0.38-2.57,1.32-3c1.66-0.42,2.64,0.48,3.6,1.7c4.95,6.26,9.96,12.49,16.25,20.34
		c0-7.41-0.04-12.97,0.03-18.53c0.02-1.47-0.69-3.5,1.99-3.61c2.81-0.11,2.08,1.98,2.09,3.45c0.05,7.61,0.06,15.23-0.01,22.84
		c-0.01,1.09,0.69,2.6-0.85,3.22c-1.86,0.75-3.02-0.38-4.12-1.77C985.5,910.07,980.48,903.84,974.42,896.27z"/>
	<path class="st282" d="M841.13,888.58c-8.93-0.05-15.62,6.13-15.78,14.58c-0.16,8.71,6.62,15.22,15.8,15.16
		c8.83-0.05,15.51-6.46,15.49-14.89C856.64,895.02,849.96,888.62,841.13,888.58z M840.03,914.58c-6.12-0.32-10.63-5.16-10.53-11.3
		c0.1-6.61,5.16-11.2,12.09-10.97c6.49,0.22,11.13,5.19,10.84,11.61C852.14,910.59,847.07,914.94,840.03,914.58z"/>
	<path class="st282" d="M104.73,903.47c-0.01,8.41-6.7,14.81-15.53,14.85c-9.18,0.04-15.95-6.48-15.77-15.2
		c0.17-8.43,6.88-14.6,15.82-14.54C98.06,888.64,104.74,895.06,104.73,903.47z"/>
	<path class="st282" d="M532.7,888.58c-8.93-0.06-15.63,6.12-15.8,14.55c-0.17,8.71,6.6,15.23,15.78,15.18
		c8.83-0.04,15.52-6.44,15.53-14.85C548.21,895.05,541.53,888.63,532.7,888.58z M531.97,914.58c-6.45-0.19-11.13-5.12-10.92-11.52
		c0.21-6.36,5.07-10.83,11.71-10.74c6.6,0.09,11.28,4.76,11.23,11.21C543.94,910.23,538.98,914.78,531.97,914.58z"/>
	<path class="st282" d="M592.11,888.58c-8.94-0.04-15.61,6.14-15.74,14.6c-0.15,8.71,6.64,15.21,15.83,15.13
		c8.82-0.06,15.48-6.49,15.47-14.91C607.64,895,600.94,888.61,592.11,888.58z M591.46,914.58c-6.46-0.17-11.15-5.1-10.95-11.5
		c0.2-6.36,5.05-10.84,11.69-10.77c6.6,0.07,11.29,4.73,11.25,11.19C603.41,910.19,598.46,914.78,591.46,914.58z"/>
	<path class="st283" d="M917.35,905.19c4.99-4.63,2.23-13.04-4.22-15.56c-4.99-1.94-10.17-0.81-15.28-0.99
		c-2.67-0.1-1.98,2.1-2,3.56c-0.05,7.41-0.05,14.82,0,22.23c0.01,1.7-0.69,4.02,2.39,3.85c2.74-0.15,1.95-2.36,1.77-3.7
		c-0.53-4.07,1.03-5.07,5.02-5.11c3.68-0.02,5.56,1.51,7.34,4.27c1.58,2.44,2.75,5.94,7.15,4.12c-0.74-1.19-1.35-2.53-2.27-3.57
		C914.51,911.18,913.26,908.99,917.35,905.19z M905.45,905.92c-5.36,0.01-5.36,0.01-5.35-7.68c-0.5-3.42-0.47-6.7,5.58-6.08
		c4.78,0.47,9.27,0.4,9.6,6.66C915.54,903.73,912.41,905.91,905.45,905.92z"/>
	<path class="st282" d="M722.26,888.58c-8.93-0.07-15.66,6.08-15.83,14.51c-0.2,8.73,6.56,15.26,15.74,15.22
		c8.83-0.02,15.53-6.41,15.56-14.82C737.75,895.07,731.08,888.64,722.26,888.58z M722.05,914.58c-6.59,0-11.39-4.6-11.47-10.99
		c-0.09-6.61,4.9-11.39,11.78-11.28c6.59,0.11,11.25,4.84,11.15,11.29C733.42,910.08,728.71,914.58,722.05,914.58z"/>
	<path class="st284" d="M496.26,567.02c-0.16,1.58-1.21,2.09-2.62,2.17c-2.69,2.1-5.3,1.34-8.05-0.01
		c-12.31-6.02-25.23-10.67-37.64-16.44c-11.15-5.19-21.63-11.8-33.28-15.99c-1.76-0.63-2.53-2.01-2.18-3.91
		c0.46-1.67,2.03-1.35,3.18-1.78c9.66,4.74,19.17,9.84,29.04,14.09c7.46,3.21,14.74,6.83,22.19,9.94
		C476.63,559.15,485.85,564.58,496.26,567.02z"/>
	<path class="st285" d="M402.24,918.31c-10.57,0-10.57,0-10.57-10.54c0-1.24,0-2.47,0-3.71c0-17.16,0.66-17.72,18.02-15.47
		c1.16,0.15,2.54-0.19,2.68,1.63c0.17,2.27-1.43,2.06-2.85,2.07c-2.68,0.02-5.41,0.32-8.03-0.06c-4.69-0.67-5.96,1.07-5.73,5.68
		c0.18,3.51,1.09,4.77,4.54,4.34c1.83-0.23,3.75-0.28,5.55,0.03c1.68,0.28,4.87-1.58,4.67,1.93c-0.19,3.2-3.23,1.34-4.97,1.65
		c-1.6,0.29-3.32,0.26-4.93,0.02c-3.74-0.55-4.88,0.73-4.87,4.64c0.02,3.93,1.67,4.31,4.78,4.11c3.29-0.21,6.6-0.07,9.89-0.03
		c1.15,0.02,2.55-0.24,2.71,1.6c0.2,2.3-1.44,2.06-2.85,2.08C407.6,918.33,404.92,918.3,402.24,918.31z"/>
	<path class="st286" d="M415.66,531.05c-0.83,0.31-1.65,0.62-2.48,0.93c-0.97,0.93-2.42,1.56-3.36,0.86
		c-5.13-3.77-11.47-5.06-16.66-8.96c-10.8-8.12-20.95-17.09-32.07-24.78c-4.08-2.82-7.49-6.36-11.07-9.74
		c-2.72-2.57-3.04-5.21-0.2-7.93c0,0,0.29-0.27,0.29-0.27c4.1,1.01,5.05,5.29,7.63,7.85c9.71,9.61,21.07,16.95,31.77,25.22
		C397.79,520.62,406.86,525.58,415.66,531.05z"/>
	<path class="st285" d="M475.2,903.56c0,3.91,0.02,7.82-0.01,11.73c-0.01,1.36,0.39,2.99-1.92,3.03c-2.15,0.04-2.09-1.32-2.21-2.84
		c-0.25-3.02,1.49-7.37-0.81-8.75c-2.6-1.57-6.75-0.41-10.16-0.86c-4.74-0.61-6.83,0.96-5.98,5.9c0.24,1.4,0,2.88,0.04,4.31
		c0.04,1.48-0.48,2.29-2.12,2.23c-1.57-0.06-2.12-0.84-2.12-2.31c0.02-8.23,0.02-16.46-0.01-24.69c-0.01-1.68,0.36-2.77,2.36-2.71
		c2.29,0.07,1.76,1.72,1.9,3.06c0.35,3.41-1.63,8.04,0.93,9.9c2.31,1.69,6.73,0.24,10.15,0.72c5.13,0.73,6.06-1.53,6.07-6.14
		c0-2.36-2.79-7.34,2.18-7.18c3.37,0.11,1.27,4.68,1.65,7.2C475.48,898.58,475.2,901.09,475.2,903.56z"/>
	<path class="st287" d="M769.32,899.74c0,2.27,0.14,4.54-0.02,6.79c-0.55,7.72-4.76,11.74-12.2,11.8
		c-7.49,0.06-11.97-3.82-12.55-11.47c-0.39-5.12-0.12-10.29-0.16-15.44c-0.01-1.56,0.16-2.86,2.25-2.84
		c2.14,0.02,2.13,1.41,2.14,2.91c0.01,4.94-0.05,9.89,0.09,14.83c0.15,4.97,2.25,8.18,7.8,8.29c5.73,0.11,8.32-2.84,8.47-8.25
		c0.14-4.73,0.07-9.47,0.14-14.21c0.02-1.55-0.51-3.6,2.13-3.5c2.64,0.1,1.87,2.21,1.93,3.68c0.1,2.47,0.03,4.94,0.03,7.41
		C769.35,899.74,769.33,899.74,769.32,899.74z"/>
	<path class="st287" d="M195.78,899.78c0,2.27,0.14,4.54-0.03,6.79c-0.56,7.7-4.79,11.72-12.24,11.76
		c-7.47,0.04-11.95-3.85-12.52-11.51c-0.39-5.12-0.11-10.29-0.15-15.44c-0.01-1.59,0.22-2.84,2.29-2.8
		c2.15,0.04,2.09,1.47,2.09,2.95c0.02,4.94-0.05,9.89,0.1,14.83c0.15,4.98,2.29,8.16,7.84,8.25c5.74,0.09,8.28-2.9,8.44-8.29
		c0.13-4.32-0.04-8.66,0.18-12.97c0.09-1.71-1.37-4.79,2.12-4.62c3.3,0.17,1.62,3.14,1.86,4.88c0.27,2.02,0.06,4.11,0.06,6.17
		C195.8,899.78,195.79,899.78,195.78,899.78z"/>
	<path class="st287" d="M887.02,899.56c-0.01,2.27,0.12,4.54-0.03,6.8c-0.51,7.79-4.63,11.85-12.03,11.98
		c-7.53,0.14-12.07-3.68-12.7-11.3c-0.42-5.12-0.16-10.29-0.19-15.44c-0.01-1.47-0.06-2.92,2.06-3.02c2.64-0.12,2.3,1.73,2.31,3.34
		c0.02,4.12-0.04,8.24,0.02,12.36c0.12,7.56,2.42,10.36,8.31,10.29c5.85-0.07,8-2.79,8.15-10.51c0.08-4.12,0.01-8.24,0.02-12.36
		c0-1.43-0.19-3.03,1.96-3.1c2.13-0.07,2.14,1.41,2.13,2.92C887.02,894.2,887.03,896.88,887.02,899.56z"/>
	<path class="st288" d="M322.86,908.48c1.74,6.36-1.53,8.16-6.05,9.27c-7.38,1.82-14.75-0.75-18.37-6.66
		c-3.17-5.16-2.57-12.67,1.38-17.29c4.28-5.01,12.92-6.83,19.24-3.79c1.53,0.74,4.79,1.11,3.28,3.94c-1.37,2.57-3.11-0.03-4.62-0.59
		c-5.23-1.95-10.21-1.85-14.19,2.45c-3.36,3.64-4.03,8.03-1.82,12.58c2.5,5.14,6.92,6.51,12.3,6.23c3.84-0.2,5.46-1.71,5.23-5.74
		c-0.1-1.75-1.85-5.28,1.83-5.28C325.38,903.61,322.16,907.53,322.86,908.48z"/>
	<path class="st288" d="M637.45,908.27c1.96,6.86-1.83,8.51-6.45,9.6c-7.11,1.67-14.25-0.95-17.83-6.64
		c-3.37-5.36-2.67-13.09,1.6-17.75c4.35-4.75,12.58-6.39,18.79-3.51c1.6,0.74,4.74,1.12,3.5,3.86c-1.2,2.67-3.04,0.22-4.55-0.38
		c-5.19-2.06-10.18-1.98-14.21,2.26c-3.41,3.58-4.15,7.95-1.99,12.54c2.43,5.17,6.79,6.65,12.2,6.38c3.75-0.18,5.61-1.45,5.38-5.58
		c-0.1-1.8-1.73-5.24,1.69-5.42C640,903.38,636.82,907.41,637.45,908.27z"/>
	<path class="st288" d="M1028.91,908.37c1.97,6.91-1.97,8.44-6.54,9.52c-7.09,1.67-14.26-1.02-17.8-6.72
		c-3.33-5.36-2.59-13.11,1.7-17.74c4.38-4.73,12.63-6.34,18.8-3.43c1.57,0.74,4.76,1.12,3.39,3.9c-1.28,2.62-3.08,0.09-4.59-0.49
		c-5.21-2.01-10.19-1.92-14.2,2.36c-3.39,3.61-4.09,7.99-1.9,12.56c2.47,5.16,6.86,6.58,12.25,6.31c3.79-0.19,5.54-1.57,5.3-5.66
		c-0.1-1.77-1.79-5.25,1.76-5.35C1031.48,903.5,1028.24,907.48,1028.91,908.37z"/>
	<path class="st288" d="M811,918.36c-4.12-0.03-7.27-0.81-10.21-2.43c-1.3-0.71-1.7-1.7-0.92-3.03c0.78-1.33,1.79-0.59,2.59-0.13
		c3.18,1.86,6.63,2.08,10.16,1.77c2.42-0.22,4.46-1.15,4.75-3.93c0.27-2.62-1.7-3.6-3.68-4.26c-2.53-0.84-5.21-1.23-7.72-2.13
		c-3.42-1.24-6.41-3.07-6.22-7.41c0.19-4.37,2.86-6.48,6.8-7.65c3.95-1.18,7.7-0.55,11.43,0.74c1.47,0.51,2.58,1.24,1.73,3.15
		c-0.85,1.9-2.13,0.81-3.01,0.35c-2.73-1.43-5.61-1.23-8.45-1c-2.21,0.17-3.95,1.54-4.32,3.77c-0.41,2.49,1.53,3.67,3.47,4.46
		c1.7,0.69,3.54,1.08,5.33,1.49c4.85,1.13,9.73,2.67,8.78,8.91C820.59,917.16,815.44,918.09,811,918.36z"/>
	<path class="st288" d="M153.74,918.32c-2.75,0.28-5.52-0.65-8.18-1.69c-1.35-0.53-3.47-1.21-2.32-3.49c1.1-2.19,2.5-0.42,3.54,0.11
		c3.11,1.55,6.38,1.56,9.66,1.25c2.15-0.21,4-1.17,4.37-3.62c0.39-2.6-1.36-3.72-3.42-4.4c-3.11-1.03-6.34-1.74-9.4-2.9
		c-2.86-1.09-4.81-3.11-4.78-6.49c0.02-3.49,1.74-5.84,4.82-7.23c4.6-2.07,9.21-1.55,13.76,0.19c1.2,0.46,2.06,1.15,1.51,2.78
		c-0.66,1.96-1.87,1.2-2.89,0.69c-2.3-1.15-4.71-1.21-7.2-1.22c-2.78-0.01-5.11,0.95-5.71,3.65c-0.68,3.09,1.85,4.2,4.31,4.96
		c1.57,0.48,3.17,0.86,4.76,1.27c4.59,1.17,8.97,2.7,8.55,8.64C164.76,915.45,160.33,918.28,153.74,918.32z"/>
	<path class="st288" d="M433.13,888.58c3.39-0.14,6.48,0.75,9.23,2.73c0.9,0.65,2.37,1.21,1.18,2.79c-0.91,1.2-1.93,1.13-3.2,0.43
		c-1.59-0.86-3.26-1.89-5-2.13c-5.1-0.72-9.42,0.84-11.98,5.58c-2.51,4.66-1.94,9.23,1.58,13.12c3.56,3.94,8.16,4.34,13,2.75
		c0.95-0.31,1.82-0.94,2.68-1.48c1.38-0.86,2.43-0.24,3.09,0.88c0.96,1.64-0.71,1.99-1.59,2.61c-4.99,3.52-13.38,3.22-18.53-0.61
		c-4.93-3.66-7.11-10.6-5.2-16.56C420.29,892.79,426.27,888.68,433.13,888.58z"/>
	<path class="st288" d="M59.64,914.58c2.37,0.31,4.63-0.58,6.68-2.06c1.28-0.92,2.33-0.57,3.16,0.54c1.19,1.57-0.35,2.04-1.24,2.7
		c-5.72,4.28-15.91,3.12-20.87-2.38c-4.7-5.21-4.92-13.79-0.49-19.28c4.69-5.81,14.47-7.39,20.63-3.24
		c1.01,0.68,3.15,1.06,2.03,3.02c-1.17,2.05-2.59,1-4.1,0.06c-3.55-2.22-7.4-2.35-11.17-0.66c-4.84,2.16-7.41,7.68-6.18,12.81
		C49.36,911.32,53.71,914.6,59.64,914.58z"/>
	<path class="st288" d="M940.26,918.31c-6.95,0.08-12.85-3.73-15.02-9.68c-2.05-5.62-0.3-12.47,4.17-16.3
		c4.74-4.06,12.51-5.09,17.85-2.07c1.32,0.74,4.19,1.21,2.97,3.64c-1.3,2.59-3.04,0.42-4.59-0.3c-5.18-2.39-10.12-2.08-14.07,2.24
		c-3.73,4.08-4.04,8.9-1.24,13.67c2.92,4.96,9.3,6.51,15.22,3.95c1.54-0.67,3.39-2.89,4.63-0.32c1.42,2.94-1.99,2.95-3.42,3.75
		C944.84,917.96,942.58,918.56,940.26,918.31z"/>
	<path class="st289" d="M232.58,904.85c0-1.44-0.17-2.91,0.03-4.33c0.8-5.71-0.08-9.75-7.38-8.25c-1.12,0.23-2.52,0.18-2.66-1.64
		c-0.17-2.29,1.46-2.07,2.87-2.07c6.19-0.02,12.38-0.04,18.56,0.02c1.28,0.01,3.08-0.56,3.17,1.76c0.09,2.34-1.72,2.19-2.99,1.92
		c-6.9-1.45-7.73,2.23-7.29,7.81c0.39,4.92,0.09,9.89,0.07,14.84c-0.01,1.62,0.31,3.47-2.31,3.39c-2.67-0.08-2.04-2.06-2.07-3.57
		C232.54,911.45,232.59,908.15,232.58,904.85z"/>
	<path class="st289" d="M372.56,905.33c0-1.86-0.22-3.74,0.04-5.56c0.79-5.45-0.43-8.75-6.92-7.49c-1.22,0.24-3.05,0.53-3.13-1.78
		c-0.08-2.39,1.71-1.9,3.03-1.91c6.19-0.05,12.38-0.05,18.56,0c1.31,0.01,3.11-0.47,3.02,1.92c-0.08,2.31-1.93,2.03-3.13,1.77
		c-7.24-1.59-7.42,2.71-7.12,7.96c0.28,4.93,0.05,9.89,0.06,14.84c0.01,1.73,0.05,3.39-2.46,3.25c-2.2-0.12-1.93-1.69-1.94-3.1
		C372.55,911.93,372.57,908.63,372.56,905.33z"/>
	<path class="st289" d="M782.59,905.02c0-1.44-0.13-2.9,0.02-4.33c0.58-5.39,0.43-10.01-7.2-8.41c-1.4,0.29-3.01,0.16-2.82-2.09
		c0.16-1.83,1.55-1.6,2.7-1.61c6.39-0.03,12.79-0.03,19.18,0c1.15,0.01,2.55-0.22,2.71,1.61c0.2,2.25-1.41,2.38-2.81,2.1
		c-7.28-1.49-7.96,2.49-7.46,8.25c0.43,4.91,0.08,9.89,0.08,14.84c0,1.51-0.03,2.89-2.14,2.96c-2.1,0.06-2.28-1.21-2.26-2.79
		C782.61,912.03,782.6,908.53,782.59,905.02z"/>
	<path class="st290" d="M656.35,903.22c4.85-4.25,5.16-12.6,13.14-14.11c-2.28,3.83-4.36,7.79-6.88,11.45
		c-3.13,4.56-5.12,9.29-4.3,14.94c0.23,1.56-0.14,2.86-2.2,2.82c-1.45-0.03-2.54-0.53-2.28-2.1c1.88-11.33-7.44-18.11-11.38-28.18
		C651.25,890.03,650.97,899.3,656.35,903.22z"/>
	<path class="st291" d="M689.26,907.78c0,5.33,0.02,10.67-0.01,16c-0.01,1.38,0.32,3.06-1.8,3.25c-2.5,0.22-2.43-1.56-2.43-3.25
		c0-11.08,0-22.15,0-33.23c0-1.69-0.06-3.47,2.43-3.25c2.13,0.19,1.8,1.87,1.8,3.25C689.28,896.29,689.26,902.04,689.26,907.78z"/>
	<path class="st291" d="M347.37,907.78c0,5.33,0.02,10.67-0.01,16c-0.01,1.38,0.32,3.06-1.8,3.25c-2.5,0.22-2.43-1.56-2.43-3.25
		c0-11.08,0-22.15,0-33.23c0-1.69-0.06-3.47,2.43-3.25c2.13,0.19,1.8,1.87,1.8,3.25C347.38,896.29,347.37,902.04,347.37,907.78z"/>
	<path class="st285" d="M558.19,901.83c0,0.41,0,0.83,0,1.24c0,11.29,0,11.23,11.4,11.59c1.55,0.05,4.29-1.26,4.46,1.56
		c0.22,3.62-2.96,1.97-4.58,2.01c-4.92,0.13-11.42,1.72-14.36-0.76c-3.43-2.89-0.84-9.61-1.13-14.66c-0.2-3.49-0.1-7.01-0.01-10.52
		c0.04-1.48-0.69-3.54,1.96-3.66c3.26-0.15,2.15,2.34,2.22,3.92C558.29,895.63,558.19,898.73,558.19,901.83z"/>
	<path class="st285" d="M204.62,903.1c0-3.09-0.22-6.21,0.08-9.27c0.18-1.84-1.76-5.33,2.22-5.1c3.67,0.21,1.75,3.54,1.85,5.38
		c0.27,5.35,0.3,10.73,0.03,16.08c-0.17,3.43,0.77,4.83,4.37,4.47c3.06-0.3,6.18-0.08,9.28-0.05c1.26,0.01,2.49,0.07,2.42,1.92
		c-0.07,1.84-1.37,1.75-2.57,1.76c-4.95,0.03-9.91-0.1-14.85,0.06c-2.76,0.09-2.88-1.45-2.85-3.49
		C204.67,910.94,204.62,907.02,204.62,903.1z"/>
	<path class="st292" d="M320.03,475.12c0.54-0.06,1.08-0.11,1.62-0.17c5.51,0.23,7.15,4.99,8.48,8.69c1.45,4.03,3.79,6.23,7.02,8.69
		c5.2,3.96,11.61,7.27,12.59,14.93c-0.18,0.63-0.55,1.11-1.12,1.43c-5.4-3.32-8.89-8.77-14.09-12.41c-2.92-2.04-5.67-4.13-9.06-5.24
		C325.46,485.11,320.23,480.97,320.03,475.12z"/>
	<path class="st293" d="M255.99,903.72c0,3.89,0.02,7.78-0.01,11.67c-0.01,1.35,0.38,2.96-1.92,2.98c-1.88,0.02-2.5-0.86-2.49-2.6
		c0.03-8.19,0.02-16.38,0-24.57c0-1.68,0.48-2.67,2.42-2.68c2.26,0,2,1.51,2,2.91C256,895.53,255.99,899.63,255.99,903.72z"/>
	<path class="st293" d="M962.08,903.45c0,3.89,0.02,7.78-0.01,11.67c-0.01,1.57,0.42,3.41-2.28,3.25c-2.09-0.12-2.13-1.46-2.13-2.95
		c0-7.98,0-15.97,0-23.95c0-1.49,0.05-2.82,2.14-2.94c2.7-0.15,2.26,1.7,2.27,3.26C962.1,895.67,962.08,899.56,962.08,903.45z"/>
	<path class="st280" d="M367.18,526.03c-5.84-1.01-8.04-6.64-12.02-9.95c-2.32-1.93-6.18-3.4-6.56-7.39c0,0,0.43-0.44,0.43-0.44
		c0.17-0.12,0.32-0.33,0.5-0.35c5.93-0.71,18.49,11.62,18.06,17.71L367.18,526.03z"/>
	<path class="st279" d="M276.11,216.24c1.86,4.76,0.87,9.72,0.77,14.55c-0.25,12.44,1.15,24.91-0.75,37.31
		C275.57,250.81,275.62,233.53,276.11,216.24z"/>
	<path class="st279" d="M275.99,161.74c1.64,9.04,1.47,18.08,0.12,27.13C276.07,179.83,276.03,170.79,275.99,161.74z"/>
	<path class="st294" d="M273.51,463.58c4.53,0.41,0.16,5.71,3.68,6.68c-0.34,1.27-0.02,3.13-2.04,3.1
		c-2.05-0.03-1.84-1.85-1.87-3.16C273.22,468,273.41,465.79,273.51,463.58z"/>
	<path class="st295" d="M808.21,625.07c-3.79-3.27-1.46-7.64-2.06-11.48C810.56,616.74,807.98,621.16,808.21,625.07z"/>
	<path class="st296" d="M690.87,408.18c-0.08-2.88-0.16-5.76-0.25-8.64C694.17,401.44,694.26,404.74,690.87,408.18z"/>
	<path class="st297" d="M336.75,348.88c-0.47-0.9,0.05-2.38-1.52-2.65c0.65-1.61,1.31-3.22,2.61-6.42
		C338.52,344.12,341.2,346.88,336.75,348.88z"/>
	<path class="st298" d="M441.7,571.64c2.62,0.42,6.06-1.69,7.49,2.41C446.6,573.55,443.1,575.83,441.7,571.64z"/>
	<path class="st299" d="M529.5,742.52c-4.04-1.41-1.58-4.87-2.32-7.32C532.1,736.33,528.79,740.06,529.5,742.52z"/>
	<path class="st300" d="M293.37,805.82c0.09-2.36-1.85-5.36,2.04-6.53C295.08,801.58,297.29,804.66,293.37,805.82z"/>
	<path class="st301" d="M247.1,852.57c0.89-4.19,4.2-1.7,6.38-2.31C252.48,854.11,249.4,852.28,247.1,852.57z"/>
	<path class="st302" d="M961.92,850.36c2.35,0.12,5.3-1.49,6.39,2.23C965.96,852.46,963.08,853.86,961.92,850.36z"/>
	<path class="st303" d="M295.37,785.99c-4.19-1.09-1.57-4.29-2.02-6.54C297.4,780.59,294.95,783.73,295.37,785.99z"/>
	<path class="st304" d="M434.08,755.9c0.03,2.17,0.06,4.34,0.09,6.51C431.06,760.28,430.33,758.12,434.08,755.9z"/>
	<path class="st265" d="M352.75,432.07c-0.11,1.1-0.22,2.19-0.33,3.29c-6.97-1.01-0.7-4.51-2.02-6.97
		C353.16,429.09,352.3,430.89,352.75,432.07z"/>
	<path class="st305" d="M296.84,167.94c-1.64,0.84-3.64,1.29-3.81,3.66c-0.73,1.22-2.18,2.52-2.06,3.65
		c0.87,8.08-3.15,15.42-2.98,23.5c0.45,21.66-1.73,43.54,0.62,64.95c2.59,23.53,0.22,47.09,3.11,70.49
		c0.81,6.54-0.74,13.12-0.91,19.67c-0.23,9.22,0.47,18.49,1.08,27.71c0.7,10.54,0.02,21.24-1.8,31.35
		c-1.82,10.11-1.41,20.27-3.24,30.27c-0.87,4.76-5.19,7.87-5.58,12.81c-0.07,0.94-1.44,1.53-2.53,1.01
		c-1.51-0.72-1.73-2.19-1.73-3.69c-0.01-8.05-0.01-16.1-0.02-24.15c0-3.3,0.01-6.6,0.01-9.91c1.17-2.13,0.59-4.44,0.59-6.66
		c0.04-33.54,0.02-67.07,0.06-100.61c0-2.22-0.56-4.53,0.56-6.67c0.01-4.53,0.02-9.06,0.03-13.6c1.93-5.8,1.97-11.6,0-17.4
		c0-2.04,0-4.08,0-6.12c1.17-1.34,1.2-2.98,1.2-4.62c0.02-14.69,0.02-29.39,0-44.08c0-1.64-0.03-3.28-1.2-4.62
		c0-9.06,0-18.12,0-27.17c2.25-3.73,0.98-7.47,0-11.2c0-4.11-0.08-8.23,0.01-12.34c0.06-2.7,0.2-5.48,3.66-6.24
		c170.83,0.01,341.66,0.02,512.49,0.03c10.19,0,10.48,0.06,10.19,10.44c-0.4,14.18-0.17,28.5-1.71,42.49
		c-0.96,8.68-1.49,17.32-1.93,26.01c-0.15,2.88-0.04,6.35-4.08,6.37c-3.92,0.02-5.79-2.56-5.79-6.48c0.01-8.87,0-17.74-0.01-26.61
		c0-10.72,0.04-21.45-0.05-32.17c-0.02-2.17,0.81-4.59-1.18-6.43c-0.09-1.01-0.3-1.96-1.31-2.49c-2.35-1.19-4.87-0.58-7.3-0.58
		c-159.03-0.03-318.07-0.03-477.1-0.06C301.72,168.46,299.21,169.01,296.84,167.94z"/>
	<path class="st306" d="M788.75,665.84c3.46-1.09,2.26-4.03,2.27-6.27c0.1-13.61,0.35-27.22-0.12-40.82
		c-0.17-4.84,3.12-8.21,3.71-12.72c0.24-1.84,4.5-1.48,6.78,0.65c2.66,2.48,3.25,5.89,3.2,9.02c-0.2,14.35,3.11,28.68,0.23,43.06
		c-1.05,5.25,1.77,10.36,0.59,15.9c-1.17,5.49-3.38,7.25-9.03,7.24c-75.07-0.19-150.14-0.13-225.22-0.13
		c-2.27,0-4.54,0.04-6.81,0.05c-92.36-0.03-184.71-0.06-277.07-0.1c-10.07,0-10.3-0.19-10.31-10.53
		c-0.03-19.37-0.02-38.74,0.07-58.11c0.01-2.99-0.18-7.15,3.35-7.65c3.28-0.46,7.84-2.86,10.35,2.11c-0.04,16.5-0.16,33-0.07,49.49
		c0.02,3.25,0.89,6.48,1.26,9.73c0.2,1.76,1.12,2.56,2.81,2.59c1.65,0.03,3.3,0.06,4.95,0.06c160.51,0,321.02,0,481.53-0.1
		C783.96,669.31,788.38,671.53,788.75,665.84z"/>
	<path class="st270" d="M278.23,305.34c0,35.83,0.01,71.67-0.05,107.5c0,2.17,0.8,4.58-1.17,6.43c0-36.04-0.01-72.09,0.02-108.13
		C277.04,309.17,276.36,306.97,278.23,305.34z"/>
	<path class="st270" d="M278.27,214.91c2.57,0.39,2.43,2.33,2.43,4.21c0,14.97,0,29.94,0,44.91c0,1.88,0.14,3.82-2.43,4.2
		C278.27,250.46,278.27,232.68,278.27,214.91z"/>
	<path class="st270" d="M278.27,274.35c3.52,3.49,3.51,13.03,0,17.4C278.26,285.95,278.26,280.15,278.27,274.35z"/>
	<path class="st270" d="M278.27,176.53c1.89,3.73,4.64,7.47,0,11.2C278.27,184,278.27,180.27,278.27,176.53z"/>
	<path class="st307" d="M296.84,167.94c161.98-0.02,323.95-0.03,485.93-0.02c1.97,0,4.18-0.75,5.79,1.18
		c-159.49,0.01-318.98,0.04-478.47-0.04C305.7,169.07,301.07,170.45,296.84,167.94z"/>
	<path class="st308" d="M367.59,525.6c-4.72-7.35-9.93-14.18-18.55-17.36c-2.6-7.51-8.36-12.19-14.95-15.78
		c-2.82-1.54-4.61-3.43-4.94-6.33c-0.58-5.14-4.6-7.74-7.51-11.19c-0.32-6.64-4.75-11.21-8.8-15.58c-1.62-1.75-3.23-3.49-3.29-5.43
		c-0.28-8.6-2.63-16.99-4.61-25.07c-2.42-9.87-0.81-19.49-2.05-29.1c-0.65-5.05,2.79-8.83,2.98-13.55c0.05-1.12,2.61-2.14,4.4-3.48
		c0.51,10.45-1.35,20.58,1.6,30.01c2.46,7.84,2.85,16.38,7.7,23.54c1.86,2.75,2.41,6.43,3.42,9.59
		c4.14,13.03,13.62,22.51,20.7,33.56c1.58,2.47,4.06,1.4,6.12,1.99c-3.19,5.8,2.49,8.21,5.13,10.42
		c11.03,9.27,23.03,17.4,34.08,26.66c6.35,5.31,14.11,8.06,20.55,13.04c0.82,0.63,2.38,0.32,3.6,0.44c0.13,1.64,0.17,3.03,2.36,3.69
		c11.33,3.43,21.3,9.72,31.77,15c3.61,1.82,8.04,2.69,11.6,4.89c6.18,3.84,13.27,5.41,19.81,8.32c4.69,2.08,8.92,6.57,14.91,5.31
		c-0.54,2.64,4.27,1.93,3.08,4.45c-1.18,2.5-4.01,1.51-6.19,1.57c-3.92,0.1-7.89-0.38-11.75,0.11c-9.61,1.22-17.85-3.53-26.7-5.58
		c-1.77-0.41-3.63-0.53-5.46-0.61c-4.13-0.17-7.64-0.34-11.65-3.21c-6.09-4.36-13.76-7.28-19.8-11.32
		c-7.32-4.91-16.27-7.58-22.35-14.95c-2.93-3.54-9.52-3.86-13.19-7.69C376.25,528.46,371.83,527.28,367.59,525.6z"/>
	<path class="st309" d="M88.75,914.58c-6.51-0.1-11.26-4.89-11.18-11.27c0.08-6.39,4.88-10.99,11.46-10.99
		c6.88,0,11.76,4.92,11.48,11.58C100.25,910.35,95.47,914.69,88.75,914.58z"/>
</g>
</svg>
